<?xml version="1.0" encoding="utf-8"?>
<!-- Generator: Adobe Illustrator 18.0.0, SVG Export Plug-In . SVG Version: 6.00 Build 0)  -->
<!DOCTYPE svg PUBLIC "-//W3C//DTD SVG 1.1//EN" "http://www.w3.org/Graphics/SVG/1.1/DTD/svg11.dtd">
<svg version="1.1" id="Layer_1" xmlns="http://www.w3.org/2000/svg" xmlns:xlink="http://www.w3.org/1999/xlink" x="0px" y="0px"
	 viewBox="0 0 16 16" enable-background="new 0 0 16 16" xml:space="preserve">
<path d="M6.3,5.7c-1,0-1.8,0.8-1.8,1.8c0,0.4,0.2,0.8,0.4,1.1C5,8.6,5.2,8.6,5.3,8.5v0c0-0.9,0.7-1.7,1.5-1.7c0.1,0,0.2,0,0.2,0
	c0.1-0.2,0.2-0.4,0.4-0.6C7.2,5.9,6.8,5.7,6.3,5.7z M6.3,5.7c-1,0-1.8,0.8-1.8,1.8c0,0.4,0.2,0.8,0.4,1.1C5,8.6,5.2,8.6,5.3,8.5v0
	c0-0.9,0.7-1.7,1.5-1.7c0.1,0,0.2,0,0.2,0c0.1-0.2,0.2-0.4,0.4-0.6C7.2,5.9,6.8,5.7,6.3,5.7z M6.3,5.7c-1,0-1.8,0.8-1.8,1.8
	c0,0.4,0.2,0.8,0.4,1.1C5,8.6,5.2,8.6,5.3,8.5v0c0-0.9,0.7-1.7,1.5-1.7c0.1,0,0.2,0,0.2,0c0.1-0.2,0.2-0.4,0.4-0.6
	C7.2,5.9,6.8,5.7,6.3,5.7z M12.1,0.6H3.9C2,0.6,0.6,2,0.6,3.9v8.2c0,1.8,1.5,3.3,3.3,3.3h8.2c1.8,0,3.3-1.5,3.3-3.3V3.9
	C15.4,2,14,0.6,12.1,0.6z M7.5,5.1c0.2-0.3,0.4-0.6,0.6-1c0.2-0.3,0.6-0.1,0.5,0.2L8,5.3C7.8,5.6,7.3,5.4,7.5,5.1z M6.5,2.8
	c0-0.3,0.5-0.3,0.5,0c-0.1,0.7-0.1,1.4-0.2,2c0,0.3-0.5,0.3-0.5,0C6.3,4.1,6.4,3.4,6.5,2.8z M5.1,3.4c0.2,0.5,0.3,1,0.5,1.5
	C5.8,5.2,5.3,5.3,5.2,5C5,4.5,4.8,4,4.6,3.6C4.5,3.2,5,3.1,5.1,3.4z M3.1,4c0.5,0.5,1,1,1.5,1.5C4.8,5.7,4.4,6,4.2,5.8
	c-0.5-0.5-1-1-1.5-1.5C2.5,4.1,2.9,3.7,3.1,4z M2.4,5.8C2.9,6,3.3,6.2,3.8,6.3C4.1,6.5,4,7,3.7,6.8C3.2,6.7,2.8,6.5,2.3,6.3
	C2,6.2,2.1,5.7,2.4,5.8z M1.5,7.6c0.7,0,1.4-0.1,2.1-0.1c0.3,0,0.4,0.5,0,0.5C2.9,8,2.2,8,1.5,8.1C1.2,8.1,1.2,7.6,1.5,7.6z M2.8,9
	c0.3-0.2,0.6-0.3,0.9-0.5C4,8.4,4.3,8.8,4,9C3.7,9.1,3.4,9.3,3.1,9.4C2.8,9.6,2.5,9.2,2.8,9z M11.9,12.8H6c-0.1,0-0.1,0-0.2,0
	c-1.1-0.1-2-1.1-2-2.2c0-0.1,0-0.1,0-0.2C3.8,10,4,9.6,4.2,9.2C4.3,9.1,4.4,9.1,4.5,9C4.1,8.4,3.9,7.7,4.1,7
	c0.3-1.1,1.4-1.9,2.5-1.8c0.5,0.1,0.9,0.2,1.2,0.5C7.9,5.7,7.9,5.6,8,5.6c0.3-0.3,0.7-0.5,1.2-0.5C9.3,5,9.6,5,9.8,5
	c1.1,0,2.2,0.7,2.7,1.7c0.6,0.1,1.2,0.4,1.6,0.8c0.1,0.1,0.1,0.2,0,0.2c-0.1,0-0.3,0-0.4,0c0,0-0.1,0-0.1-0.1
	c-0.4-0.3-0.9-0.5-1.5-0.6c-0.3-1-1.2-1.7-2.3-1.7c-0.6,0-1.2,0.2-1.6,0.6C8.1,6.2,8,6.2,8,6.3C7.9,6.4,7.9,6.5,7.8,6.5
	C7.6,6.8,7.5,7,7.5,7.3C7.3,7.3,7.2,7.3,7,7.3c-0.6,0-1.1,0.5-1.2,1.1c0,0.2,0,0.4,0.1,0.6C5.7,8.9,5.5,9,5.3,9
	c-0.1,0-0.2,0.1-0.3,0.1C5,9.2,4.9,9.3,4.9,9.3c-0.4,0.3-0.6,0.8-0.6,1.3c0,0.9,0.7,1.6,1.5,1.7c0,0,0.1,0,0.1,0h5.9
	c0.5,0,1-0.1,1.3-0.4h0c0.4,0,0.8-0.2,1-0.4c0.1,0,0.1,0.1,0.1,0.1C13.7,12.4,12.9,12.8,11.9,12.8z M13.4,11.6
	c-0.5,0-0.9-0.3-1.1-0.9c-0.2,0.5-0.6,0.9-1,0.8c-1,0-1.5-1.4-1.2-3.3c0-0.1,0.1-0.2,0.2-0.2c0.1,0,0.2,0.1,0.3,0.2
	c0.1,0.1,0.2,0.2,0.2,0.4c-0.1,1.2,0.1,2,0.5,2.1c0.3,0,0.6-0.8,0.8-2c0-0.2,0.1-0.3,0.3-0.3c0.2,0,0.4,0.2,0.4,0.5
	c0,1,0.3,1.8,0.6,1.8c0.3,0,0.5-0.4,0.5-0.9C13.3,9.2,13.6,8,14.1,8c0.3,0,0.5,0.5,0.6,0.9C14.8,10.2,14.3,11.6,13.4,11.6z M5.3,8.5
	L5.3,8.5c0-0.9,0.7-1.7,1.5-1.8c0.1,0,0.2,0,0.2,0c0.1-0.2,0.2-0.4,0.4-0.6C7.2,5.9,6.8,5.7,6.3,5.7c-1,0-1.8,0.8-1.8,1.8
	c0,0.4,0.2,0.8,0.4,1.1C5,8.6,5.2,8.6,5.3,8.5z M6.3,5.7c-1,0-1.8,0.8-1.8,1.8c0,0.4,0.2,0.8,0.4,1.1C5,8.6,5.2,8.6,5.3,8.5v0
	c0-0.9,0.7-1.7,1.5-1.7c0.1,0,0.2,0,0.2,0c0.1-0.2,0.2-0.4,0.4-0.6C7.2,5.9,6.8,5.7,6.3,5.7z M6.3,5.7c-1,0-1.8,0.8-1.8,1.8
	c0,0.4,0.2,0.8,0.4,1.1C5,8.6,5.2,8.6,5.3,8.5v0c0-0.9,0.7-1.7,1.5-1.7c0.1,0,0.2,0,0.2,0c0.1-0.2,0.2-0.4,0.4-0.6
	C7.2,5.9,6.8,5.7,6.3,5.7z"/>
</svg>
