<?xml version="1.0" encoding="utf-8"?>
<!-- Generator: Adobe Illustrator 18.0.0, SVG Export Plug-In . SVG Version: 6.00 Build 0)  -->
<!DOCTYPE svg PUBLIC "-//W3C//DTD SVG 1.1//EN" "http://www.w3.org/Graphics/SVG/1.1/DTD/svg11.dtd">
<svg version="1.1" id="Layer_1" xmlns="http://www.w3.org/2000/svg" xmlns:xlink="http://www.w3.org/1999/xlink" x="0px" y="0px"
	 viewBox="0 0 16 16" enable-background="new 0 0 16 16" xml:space="preserve">
<path d="M12.1,15.5H3.9c-1.8,0-3.3-1.5-3.3-3.3V3.9C0.5,2,2,0.5,3.9,0.5h8.3c1.8,0,3.3,1.5,3.3,3.3v8.3C15.5,14,14,15.5,12.1,15.5z"
	/>
<circle fill="#FFFFFF" cx="6" cy="7.3" r="2.3"/>
<g>
	<g>
		<path fill="#FFFFFF" d="M6.3,4c0-0.5,0-1,0-1.5c0-0.6-1-0.6-1,0c0,0.5,0,1,0,1.5C5.3,4.6,6.3,4.6,6.3,4L6.3,4z"/>
	</g>
</g>
<g>
	<g>
		<path fill="#FFFFFF" d="M4.2,4.4C3.8,3.9,3.4,3.3,3,2.8C2.6,2.3,1.9,3,2.3,3.5c0.4,0.5,0.8,1.1,1.3,1.6C3.9,5.6,4.6,4.9,4.2,4.4
			L4.2,4.4z"/>
	</g>
</g>
<g>
	<g>
		<path fill="#FFFFFF" d="M3,5.8C2.8,5.7,2.5,5.7,2.3,5.6c-0.6-0.2-0.9,0.8-0.3,1c0.2,0.1,0.4,0.1,0.7,0.2C3.3,7,3.6,6,3,5.8L3,5.8z
			"/>
	</g>
</g>
<g>
	<g>
		<path fill="#FFFFFF" d="M2.7,7.8C2.4,7.9,2,7.9,1.7,8C1.1,8.2,1.3,9.2,1.9,9C2.3,8.9,2.7,8.8,3,8.7C3.6,8.6,3.4,7.6,2.7,7.8
			L2.7,7.8z"/>
	</g>
</g>
<path fill="#FFFFFF" stroke="#000000" stroke-miterlimit="10" d="M15,9.6c0,1.7-1.4,3.1-3.1,3.1H4.7c-0.1,0-0.1,0-0.2,0
	c-1.1-0.1-1.9-1-1.9-2c0-1.1,0.9-2,2-2.1C4.6,8.4,4.5,8.2,4.5,8c0-0.8,0.7-1.5,1.5-1.5c0.2,0,0.4,0,0.5,0.1c0.3-1.3,1.5-2.2,2.8-2.2
	c1.3,0,2.4,0.9,2.8,2.1C13.7,6.6,15,7.9,15,9.6z"/>
</svg>
