<?xml version="1.0" encoding="utf-8"?>
<!-- Generator: Adobe Illustrator 18.0.0, SVG Export Plug-In . SVG Version: 6.00 Build 0)  -->
<!DOCTYPE svg PUBLIC "-//W3C//DTD SVG 1.1//EN" "http://www.w3.org/Graphics/SVG/1.1/DTD/svg11.dtd">
<svg version="1.1" id="Layer_1" xmlns="http://www.w3.org/2000/svg" xmlns:xlink="http://www.w3.org/1999/xlink" x="0px" y="0px"
	 viewBox="0 0 16 16" enable-background="new 0 0 16 16" xml:space="preserve">
<path d="M12.1,0.5H3.9C2,0.5,0.5,2,0.5,3.9v8.3c0,1.8,1.5,3.3,3.3,3.3h8.3c1.8,0,3.3-1.5,3.3-3.3V3.9C15.5,2,14,0.5,12.1,0.5z
	 M4.6,8.5c-0.2,0-0.4,0-0.6,0.1C3.8,8.3,3.6,7.8,3.6,7.3C3.6,6.1,4.7,5,6,5c0.4,0,0.8,0.1,1.2,0.3C6.8,5.7,6.6,6.1,6.5,6.6
	C6.3,6.5,6.2,6.5,6,6.5C5.2,6.5,4.5,7.2,4.5,8C4.5,8.2,4.6,8.4,4.6,8.5z M5.3,2.5c0-0.6,1-0.6,1,0V4c0,0.6-1,0.6-1,0V2.5z M3,2.8
	c0.4,0.5,0.8,1.1,1.3,1.6c0.4,0.5-0.3,1.2-0.7,0.7C3.1,4.6,2.7,4.1,2.3,3.5C1.9,3,2.6,2.3,3,2.8z M2.3,5.6C2.5,5.7,2.8,5.7,3,5.8
	C3.6,6,3.3,7,2.7,6.8C2.5,6.7,2.3,6.6,2.1,6.6C1.5,6.4,1.7,5.4,2.3,5.6z M2.9,8.8C2.6,8.8,2.3,8.9,2,9C1.3,9.2,1.1,8.2,1.7,8
	C2,7.9,2.4,7.9,2.7,7.8c0.4-0.1,0.7,0.3,0.6,0.7v0c0,0,0,0,0,0C3.2,8.5,3.1,8.6,2.9,8.8L2.9,8.8z M11.9,12.1H4.6
	c-0.8-0.1-1.4-0.8-1.4-1.5c0-0.7,0.4-1.2,1-1.5c0.1,0,0.1,0,0.2,0c0.1,0,0.2,0,0.2,0l0.7,0L5.1,8.3C5,8.2,5,8.1,5,8c0-0.5,0.4-1,1-1
	c0.1,0,0.2,0,0.3,0.1l0.5,0.2L7,6.7c0.1-0.4,0.3-0.7,0.5-1c0,0,0,0,0,0C8,5.2,8.6,4.9,9.3,4.9c1.1,0,2,0.7,2.3,1.7l0.1,0.3l0.4,0
	c1.4,0.1,2.4,1.2,2.4,2.6C14.5,11,13.3,12.1,11.9,12.1z"/>
<g>
	<path fill="#FFFFFF" d="M3.3,8.5c0,0.1-0.1,0.2-0.3,0.3c0,0,0,0-0.1,0C3.1,8.6,3.2,8.5,3.3,8.5z"/>
</g>
<g>
	<path d="M2.9,8.7C3,8.7,3,8.7,2.9,8.7c0.2,0,0.3-0.2,0.4-0.3C3.2,8.5,3.1,8.6,2.9,8.7z"/>
</g>
</svg>
